<svg version="1.1" id="Layer_1" xmlns="http://www.w3.org/2000/svg" xmlns:xlink="http://www.w3.org/1999/xlink" x="0px" y="0px"
	 width="100%" viewBox="0 0 104 85" enable-background="new 0 0 104 85" xml:space="preserve">
<path fill="#FDFDFD" opacity="1.000000" stroke="none" 
	d="
M73.000000,86.000000 
	C48.666668,86.000000 24.833334,86.000000 1.000000,86.000000 
	C1.000000,57.666668 1.000000,29.333334 1.000000,1.000000 
	C35.666668,1.000000 70.333336,1.000000 105.000000,1.000000 
	C105.000000,29.333334 105.000000,57.666668 105.000000,86.000000 
	C94.500000,86.000000 84.000000,86.000000 73.000000,86.000000 
M83.940315,3.196021 
	C82.328415,2.823458 80.717888,2.134046 79.104408,2.127085 
	C61.965893,2.053148 44.821968,1.845482 27.690144,2.194936 
	C19.188961,2.368343 12.227878,9.652253 12.105827,18.138218 
	C11.864147,34.941895 11.850933,51.754253 12.106732,68.557495 
	C12.241569,77.414810 19.202181,84.559517 27.985643,84.711212 
	C44.953556,85.004234 61.930698,84.855309 78.903145,84.749992 
	C86.313202,84.704018 94.538345,77.518791 94.170914,68.391777 
	C93.515450,52.110130 93.727425,35.777203 94.100601,19.477716 
	C94.275604,11.834355 91.301041,6.780149 83.940315,3.196021 
z"/>
<path fill="#070707" opacity="1.000000" stroke="none" 
	d="
M84.293968,3.371140 
	C91.301041,6.780149 94.275604,11.834355 94.100601,19.477716 
	C93.727425,35.777203 93.515450,52.110130 94.170914,68.391777 
	C94.538345,77.518791 86.313202,84.704018 78.903145,84.749992 
	C61.930698,84.855309 44.953556,85.004234 27.985643,84.711212 
	C19.202181,84.559517 12.241569,77.414810 12.106732,68.557495 
	C11.850933,51.754253 11.864147,34.941895 12.105827,18.138218 
	C12.227878,9.652253 19.188961,2.368343 27.690144,2.194936 
	C44.821968,1.845482 61.965893,2.053148 79.104408,2.127085 
	C80.717888,2.134046 82.328415,2.823458 84.293968,3.371140 
M74.834740,60.305229 
	C82.574226,50.476486 84.259033,39.779499 78.306480,28.657785 
	C72.366005,17.558634 62.602501,12.781884 50.083210,13.797177 
	C37.759125,14.796638 27.475054,24.976789 25.307196,38.177685 
	C23.424971,49.639240 30.081182,61.954433 41.360210,66.445404 
	C40.594318,63.955673 39.805603,61.242561 38.034027,59.571312 
	C27.993742,50.099651 27.236950,35.470551 36.552975,25.655602 
	C45.533512,16.194111 61.000439,16.129055 70.114563,25.514439 
	C79.579689,35.261284 78.973679,49.772728 68.964462,59.420727 
	C67.199799,61.121700 66.396187,63.819714 65.148750,66.057289 
	C65.698105,66.423439 66.247467,66.789581 66.796822,67.155724 
	C69.312958,65.046524 71.829102,62.937317 74.834740,60.305229 
M56.922466,73.048492 
	C58.054089,71.760101 59.748451,70.639587 60.193848,69.146500 
	C60.988609,66.482224 60.804512,63.541443 61.431206,60.808342 
	C62.791378,54.876438 61.713810,50.110378 55.484959,47.494358 
	C61.024620,43.599266 62.160137,39.540325 59.036831,35.740608 
	C56.295757,32.405888 51.329029,31.882370 48.510609,34.989857 
	C47.271870,36.355637 45.929520,38.715378 46.298248,40.214539 
	C46.972713,42.956757 48.884163,45.394730 50.299122,47.995209 
	C47.157482,49.505638 44.613731,52.127403 44.934643,56.567207 
	C45.113739,59.044956 45.487167,61.509445 45.798286,63.976727 
	C46.973873,73.299492 46.977741,73.299004 56.922466,73.048492 
M41.112713,50.715900 
	C40.946304,49.350262 41.004681,47.909016 40.575142,46.631878 
	C38.557209,40.631996 40.182270,34.853157 45.107975,31.050169 
	C50.002850,27.270977 56.219063,27.148741 61.320850,30.731352 
	C66.322182,34.243420 68.023834,40.115372 66.422089,46.183208 
	C65.774757,48.635471 66.315346,51.401310 66.315346,54.024452 
	C73.995155,45.021957 73.359184,34.776123 65.800056,28.016062 
	C58.504478,21.491695 47.463360,21.703821 40.468319,28.502747 
	C33.295700,35.474274 32.939354,45.794674 39.773766,54.273594 
	C40.185856,53.241890 40.544056,52.345089 41.112713,50.715900 
z"/>
<path fill="#EFEFEF" opacity="1.000000" stroke="none" 
	d="
M74.589989,60.566673 
	C71.829102,62.937317 69.312958,65.046524 66.796822,67.155724 
	C66.247467,66.789581 65.698105,66.423439 65.148750,66.057289 
	C66.396187,63.819714 67.199799,61.121700 68.964462,59.420727 
	C78.973679,49.772728 79.579689,35.261284 70.114563,25.514439 
	C61.000439,16.129055 45.533512,16.194111 36.552975,25.655602 
	C27.236950,35.470551 27.993742,50.099651 38.034027,59.571312 
	C39.805603,61.242561 40.594318,63.955673 41.360210,66.445404 
	C30.081182,61.954433 23.424971,49.639240 25.307196,38.177685 
	C27.475054,24.976789 37.759125,14.796638 50.083210,13.797177 
	C62.602501,12.781884 72.366005,17.558634 78.306480,28.657785 
	C84.259033,39.779499 82.574226,50.476486 74.589989,60.566673 
z"/>
<path fill="#F7F7F7" opacity="1.000000" stroke="none" 
	d="
M56.490929,73.100494 
	C46.977741,73.299004 46.973873,73.299492 45.798286,63.976727 
	C45.487167,61.509445 45.113739,59.044956 44.934643,56.567207 
	C44.613731,52.127403 47.157482,49.505638 50.299122,47.995209 
	C48.884163,45.394730 46.972713,42.956757 46.298248,40.214539 
	C45.929520,38.715378 47.271870,36.355637 48.510609,34.989857 
	C51.329029,31.882370 56.295757,32.405888 59.036831,35.740608 
	C62.160137,39.540325 61.024620,43.599266 55.484959,47.494358 
	C61.713810,50.110378 62.791378,54.876438 61.431206,60.808342 
	C60.804512,63.541443 60.988609,66.482224 60.193848,69.146500 
	C59.748451,70.639587 58.054089,71.760101 56.490929,73.100494 
z"/>
<path fill="#EFEFEF" opacity="1.000000" stroke="none" 
	d="
M41.007484,51.082096 
	C40.544056,52.345089 40.185856,53.241890 39.773766,54.273594 
	C32.939354,45.794674 33.295700,35.474274 40.468319,28.502747 
	C47.463360,21.703821 58.504478,21.491695 65.800056,28.016062 
	C73.359184,34.776123 73.995155,45.021957 66.315346,54.024452 
	C66.315346,51.401310 65.774757,48.635471 66.422089,46.183208 
	C68.023834,40.115372 66.322182,34.243420 61.320850,30.731352 
	C56.219063,27.148741 50.002850,27.270977 45.107975,31.050169 
	C40.182270,34.853157 38.557209,40.631996 40.575142,46.631878 
	C41.004681,47.909016 40.946304,49.350262 41.007484,51.082096 
z"/>
</svg>