<?xml version="1.0" standalone="no"?>
<!DOCTYPE svg PUBLIC "-//W3C//DTD SVG 20010904//EN"
 "http://www.w3.org/TR/2001/REC-SVG-20010904/DTD/svg10.dtd">
<svg version="1.0" xmlns="http://www.w3.org/2000/svg"
 width="104.000000pt" height="85.000000pt" viewBox="0 0 104.000000 85.000000"
 preserveAspectRatio="xMidYMid meet">

<g transform="translate(0.000000,85.000000) scale(0.100000,-0.100000)"
fill="#000000" stroke="none">
<path d="M241 679 c-120 -35 -201 -157 -188 -283 7 -69 34 -122 89 -173 55
-50 104 -67 185 -66 152 2 263 130 250 289 -13 167 -174 279 -336 233z"/>
<path d="M671 634 c-111 -136 -59 -464 74 -464 39 0 91 58 110 122 19 66 19
190 0 256 -9 29 -30 68 -46 87 -25 29 -38 35 -69 35 -32 0 -44 -6 -69 -36z"/>
<path d="M923 614 c-14 -31 -17 -68 -18 -184 0 -160 14 -234 43 -228 26 5 40
79 41 218 1 134 -8 194 -33 218 -14 14 -17 12 -33 -24z"/>
</g>
</svg>
